<svg id="award" xmlns="http://www.w3.org/2000/svg" xmlns:xlink="http://www.w3.org/1999/xlink" width="15.754" height="21.45" viewBox="0 0 15.754 21.45">
  <defs>
    <clipPath id="clip-path">
      <rect id="Rectangle_2994" data-name="Rectangle 2994" width="15.754" height="21.45" fill="none"/>
    </clipPath>
  </defs>
  <g id="Group_12023" data-name="Group 12023" clip-path="url(#clip-path)">
    <path id="Path_5996" data-name="Path 5996" d="M8.267,15.806H7.462c-.224.521-.459,1.066-.691,1.612Q6.03,19.158,5.292,20.9c-.114.271-.237.531-.581.549s-.5-.22-.633-.485c-.228-.446-.465-.887-.72-1.372-.493.157-.979.308-1.463.466-.3.1-.587.167-.822-.114-.22-.263-.115-.534,0-.8Q2.1,16.729,3.134,14.316A1.3,1.3,0,0,0,2.522,12.8c-.274-.115-.555-.217-.825-.341a1.377,1.377,0,0,1-.822-1.522c.032-.228.048-.46.1-.683a1.1,1.1,0,0,0-.323-.992C.345,8.889-.06,8.532.007,7.994A1.808,1.808,0,0,1,.356,7a2.074,2.074,0,0,0,.53-2.074A1.253,1.253,0,0,1,1.727,3.4a2.187,2.187,0,0,0,1.6-1.568A1.236,1.236,0,0,1,4.9.945,2.053,2.053,0,0,0,6.954.391,1.252,1.252,0,0,1,8.763.381a2.059,2.059,0,0,0,2.046.566,1.273,1.273,0,0,1,1.623.942,2.039,2.039,0,0,0,1.44,1.458c.879.293,1.14.874.928,1.97a1.5,1.5,0,0,0,.369,1.406,2.539,2.539,0,0,1,.535.937,1.169,1.169,0,0,1-.325,1.2,1.983,1.983,0,0,0-.54,2.063,1.318,1.318,0,0,1-.8,1.524,1.935,1.935,0,0,1-.449.184,1.34,1.34,0,0,0-1.066,1.173.862.862,0,0,0,.062.5c.679,1.612,1.376,3.216,2.052,4.83a1.069,1.069,0,0,1,.087.659c-.1.334-.4.416-.73.311-.452-.143-.906-.282-1.354-.437a.281.281,0,0,0-.411.169,9.038,9.038,0,0,1-.633,1.183.865.865,0,0,1-.574.4.8.8,0,0,1-.543-.44C9.722,19.266,9,17.539,8.267,15.806M13.7,4.791c.084-.282-.166-.381-.4-.438a2.393,2.393,0,0,1-1.869-1.867c-.007-.026-.018-.051-.026-.077a.389.389,0,0,0-.544-.307,2.425,2.425,0,0,1-2.483-.545c-.469-.468-.518-.419-1.046-.013a4.238,4.238,0,0,0-.353.274A1.673,1.673,0,0,1,5.5,2.2a2.522,2.522,0,0,1-.52-.079c-.433-.156-.631.045-.731.432A2.284,2.284,0,0,1,2.575,4.3c-.65.192-.634.245-.514.911.007.04.021.079.03.118A1.891,1.891,0,0,1,1.628,7.21a.836.836,0,0,0-.077.095c-.532.723-.594.525,0,1.233a2.062,2.062,0,0,1,.553,1.937c-.03.118-.046.239-.07.359-.069.352.005.611.41.687.117.022.221.106.337.137a1.852,1.852,0,0,1,1.365,1.368c.034.116.1.223.132.34.095.379.3.485.69.383a2.189,2.189,0,0,1,2.354.557c.063.068.165.1.228.168a.376.376,0,0,0,.622,0,2.5,2.5,0,0,1,2.5-.763c.57.147.623.108.8-.464a2.3,2.3,0,0,1,1.605-1.666c.7-.214.682-.258.553-.99a1.967,1.967,0,0,1,.285-1.732c.745-.914.73-.93,0-1.878A1.471,1.471,0,0,1,13.589,5.7c.063-.276.074-.563.116-.907M4.087,14.956l-1.58,3.71c.354-.11.612-.186.868-.27a.6.6,0,0,1,.807.335c.131.258.272.511.448.838l1.872-4.4a.892.892,0,0,0-.962-.339,10.834,10.834,0,0,1-1.453.129m7.538-.006c-.422-.032-.783-.061-1.144-.087-.444-.033-.929-.245-1.251.327l1.861,4.378c.178-.335.315-.584.444-.837a.6.6,0,0,1,.81-.335c.264.086.532.161.862.259L11.626,14.95" transform="translate(0 0)"/>
    <path id="Path_5997" data-name="Path 5997" d="M56.848,61.547c-.15-.072-.368-.176-.586-.283-.447-.22-.893-.612-1.341-.614-.433,0-.865.4-1.3.617-.317.157-.623.45-1.007.162-.363-.272-.195-.64-.144-.978.061-.4.16-.8.2-1.2a.707.707,0,0,0-.157-.488c-.347-.38-.753-.707-1.09-1.1a.8.8,0,0,1-.21-.632.946.946,0,0,1,.572-.415,3.275,3.275,0,0,1,1-.15,1.08,1.08,0,0,0,1.156-.837,3.73,3.73,0,0,1,.472-.942.779.779,0,0,1,.523-.351.82.82,0,0,1,.558.363c.27.436.457.923.711,1.369a.687.687,0,0,0,.409.3c.49.1,1,.13,1.483.247a1.047,1.047,0,0,1,.6.393c.167.264-.032.51-.239.708-.353.338-.694.688-1.058,1.014a.532.532,0,0,0-.175.574c.105.5.188,1.013.27,1.521a.6.6,0,0,1-.643.726m-.664-1.625a1.688,1.688,0,0,1,.8-2.3,3.923,3.923,0,0,1-1.339-.337,4.105,4.105,0,0,1-.755-1.179,1.619,1.619,0,0,1-1.95,1.43c.352.408.758.692.877,1.067a4.322,4.322,0,0,1-.085,1.432,1.657,1.657,0,0,1,2.449-.11" transform="translate(-47.086 -49.979)" fill="#ec8046"/>
  </g>
</svg>
