<svg id="location" xmlns="http://www.w3.org/2000/svg" xmlns:xlink="http://www.w3.org/1999/xlink" width="15.116" height="18.902" viewBox="0 0 15.116 18.902">
  <defs>
    <clipPath id="clip-path">
      <rect id="Rectangle_2995" data-name="Rectangle 2995" width="15.116" height="18.902" fill="none"/>
    </clipPath>
  </defs>
  <g id="Group_12025" data-name="Group 12025" clip-path="url(#clip-path)">
    <path id="Path_5998" data-name="Path 5998" d="M0,7.736A7.626,7.626,0,0,1,5.658.247a7.54,7.54,0,0,1,9.328,5.992,7.252,7.252,0,0,1-1.648,6.175C11.589,14.5,9.8,16.543,8.025,18.6c-.342.4-.593.4-.939-.006-1.779-2.067-3.566-4.127-5.331-6.205A7.263,7.263,0,0,1,0,7.736M7.557,17.7c.093-.106.164-.185.233-.266,1.548-1.8,3.086-3.61,4.646-5.4A6.609,6.609,0,0,0,6.47,1.058,6.3,6.3,0,0,0,1.362,5.309a6.339,6.339,0,0,0,1.173,6.544c1.124,1.363,2.3,2.684,3.454,4.023L7.557,17.7" transform="translate(0 0.001)"/>
    <path id="Path_5999" data-name="Path 5999" d="M72.311,69.109a3.307,3.307,0,1,1-3.3,3.33,3.317,3.317,0,0,1,3.3-3.33m.007,5.663a2.357,2.357,0,1,0-2.352-2.337,2.347,2.347,0,0,0,2.352,2.337" transform="translate(-64.764 -64.852)" fill="#ec8046"/>
  </g>
</svg>
